<?xml version="1.0" encoding="UTF-8" standalone="no"?>
<svg
   xmlns:dc="http://purl.org/dc/elements/1.1/"
   xmlns:cc="http://creativecommons.org/ns#"
   xmlns:rdf="http://www.w3.org/1999/02/22-rdf-syntax-ns#"
   xmlns:svg="http://www.w3.org/2000/svg"
   xmlns="http://www.w3.org/2000/svg"
   xmlns:sodipodi="http://sodipodi.sourceforge.net/DTD/sodipodi-0.dtd"
   xmlns:inkscape="http://www.inkscape.org/namespaces/inkscape"
   width="900"
   height="177.82278"
   viewBox="0 0 900 177.82278"
   version="1.1"
   preserveAspectRatio="xMidYMid"
   id="svg8"
   sodipodi:docname="facebook-button.svg"
   inkscape:version="0.92.4 (unknown)"
   inkscape:export-filename="/home/klequis/dev/tvc-sendgrid/facebook-button.png"
   inkscape:export-xdpi="90"
   inkscape:export-ydpi="90">
  <metadata
     id="metadata14">
    <rdf:RDF>
      <cc:Work
         rdf:about="">
        <dc:format>image/svg+xml</dc:format>
        <dc:type
           rdf:resource="http://purl.org/dc/dcmitype/StillImage" />
        <dc:title></dc:title>
      </cc:Work>
    </rdf:RDF>
  </metadata>
  <defs
     id="defs12" />
  <sodipodi:namedview
     pagecolor="#ffffff"
     bordercolor="#666666"
     borderopacity="1"
     objecttolerance="10"
     gridtolerance="10"
     guidetolerance="10"
     inkscape:pageopacity="0"
     inkscape:pageshadow="2"
     inkscape:window-width="1920"
     inkscape:window-height="1021"
     id="namedview10"
     showgrid="false"
     showguides="true"
     inkscape:guide-bbox="true"
     fit-margin-top="0"
     fit-margin-left="0"
     fit-margin-right="0"
     fit-margin-bottom="0"
     inkscape:zoom="1"
     inkscape:cx="387.16948"
     inkscape:cy="-168.08861"
     inkscape:window-x="0"
     inkscape:window-y="27"
     inkscape:window-maximized="1"
     inkscape:current-layer="svg8">
    <sodipodi:guide
       position="78.726106,85.351893"
       orientation="0,1"
       id="guide907"
       inkscape:locked="false" />
  </sodipodi:namedview>
  <g
     id="g972">
    <rect
       style="opacity:1;fill:#395185;fill-opacity:1;stroke:#395185;stroke-width:6.57757998;stroke-linejoin:bevel;stroke-miterlimit:4;stroke-dasharray:none;stroke-opacity:1"
       id="rect886"
       width="893.42242"
       height="171.24521"
       x="3.28879"
       y="3.28879"
       ry="27.299959" />
    <g
       transform="matrix(0.5390625,0,0,0.5390625,22.999987,7.9113944)"
       id="g893">
      <path
         style="fill:#395185"
         inkscape:connector-curvature="0"
         id="path2"
         d="m 241.871,256.001 c 7.802,0 14.129,-6.326 14.129,-14.129 V 14.129 C 256,6.325 249.673,0 241.871,0 H 14.129 C 6.324,0 0,6.325 0,14.129 v 227.743 c 0,7.803 6.324,14.129 14.129,14.129 h 227.742" />
      <path
         style="fill:#ffffff"
         inkscape:connector-curvature="0"
         id="path4"
         d="m 176.635,256.001 v -99.137 h 33.277 l 4.982,-38.635 H 176.635 V 93.561 c 0,-11.186 3.107,-18.809 19.148,-18.809 l 20.459,-0.009 V 40.188 c -3.54,-0.471 -15.684,-1.523 -29.812,-1.523 -29.498,0 -49.692,18.005 -49.692,51.071 v 28.493 h -33.362 v 38.635 h 33.362 v 99.137 h 39.897" />
    </g>
    <g
       transform="matrix(1.3742654,0,0,1.3742654,271.49986,267.33497)"
       id="text897"
       style="font-style:normal;font-weight:normal;font-size:40px;line-height:1.25;font-family:sans-serif;letter-spacing:0px;word-spacing:0px;fill:#ffffff;fill-opacity:1;stroke:none"
       aria-label="Join TriValley Coders">
      <path
         inkscape:connector-curvature="0"
         id="path909"
         d="m -30.074219,-148.16016 h 3.945313 v 27.12891 q 0,5.27344 -2.011719,7.65625 -1.992187,2.38281 -6.425781,2.38281 h -1.503906 v -3.32031 h 1.230468 q 2.617188,0 3.691407,-1.46484 1.074218,-1.46485 1.074218,-5.25391 z" />
      <path
         inkscape:connector-curvature="0"
         id="path911"
         d="m -9.9570313,-138.35547 q -2.8906247,0 -4.5703127,2.26563 -1.679687,2.24609 -1.679687,6.17187 0,3.92578 1.660156,6.19141 1.679687,2.24609 4.5898437,2.24609 2.8710938,0 4.5507813,-2.26562 1.6796875,-2.26563 1.6796875,-6.17188 0,-3.88672 -1.6796875,-6.15234 -1.6796875,-2.28516 -4.5507813,-2.28516 z m 0,-3.04687 q 4.6875001,0 7.3632813,3.04687 2.67578125,3.04688 2.67578125,8.4375 0,5.37109 -2.67578125,8.4375 -2.6757812,3.04688 -7.3632813,3.04688 -4.7070317,0 -7.3828127,-3.04688 -2.65625,-3.06641 -2.65625,-8.4375 0,-5.39062 2.65625,-8.4375 2.675781,-3.04687 7.3828127,-3.04687 z" />
      <path
         inkscape:connector-curvature="0"
         id="path913"
         d="M 6.0195312,-140.875 H 9.6132813 V -119 H 6.0195312 Z m 0,-8.51562 h 3.5937501 v 4.55078 H 6.0195312 Z" />
      <path
         inkscape:connector-curvature="0"
         id="path915"
         d="M 35.296875,-132.20312 V -119 h -3.59375 v -13.08594 q 0,-3.10547 -1.210938,-4.64843 -1.210937,-1.54297 -3.632812,-1.54297 -2.910156,0 -4.589844,1.85547 -1.679687,1.85546 -1.679687,5.05859 V -119 h -3.613282 v -21.875 h 3.613282 v 3.39844 q 1.289062,-1.97266 3.027343,-2.94922 1.757813,-0.97656 4.042969,-0.97656 3.769531,0 5.703125,2.34375 1.933594,2.32422 1.933594,6.85547 z" />
      <path
         inkscape:connector-curvature="0"
         id="path917"
         d="m 51.351562,-148.16016 h 24.667969 v 3.32032 H 65.667969 V -119 h -3.964844 v -25.83984 H 51.351562 Z" />
      <path
         inkscape:connector-curvature="0"
         id="path919"
         d="m 86.507812,-137.51562 q -0.605468,-0.35157 -1.328125,-0.50782 -0.703125,-0.17578 -1.5625,-0.17578 -3.046875,0 -4.6875,1.99219 -1.621093,1.97266 -1.621093,5.68359 V -119 h -3.613282 v -21.875 h 3.613282 v 3.39844 q 1.132812,-1.99219 2.949218,-2.94922 1.816407,-0.97656 4.414063,-0.97656 0.371094,0 0.820312,0.0586 0.449219,0.0391 0.996094,0.13672 z" />
      <path
         inkscape:connector-curvature="0"
         id="path921"
         d="m 90.316406,-140.875 h 3.59375 V -119 h -3.59375 z m 0,-8.51562 h 3.59375 v 4.55078 h -3.59375 z" />
      <path
         inkscape:connector-curvature="0"
         id="path923"
         d="m 109.08594,-119 -11.132815,-29.16016 h 4.121095 l 9.23828,24.55078 9.25781,-24.55078 h 4.10157 L 113.55859,-119 Z" />
      <path
         inkscape:connector-curvature="0"
         id="path925"
         d="m 135.57031,-129.99609 q -4.35547,0 -6.03515,0.99609 -1.67969,0.99609 -1.67969,3.39844 0,1.91406 1.25,3.04687 1.26953,1.11328 3.4375,1.11328 2.98828,0 4.78515,-2.10937 1.81641,-2.12891 1.81641,-5.64453 v -0.80078 z m 7.16797,-1.48438 V -119 h -3.59375 v -3.32031 q -1.23047,1.99218 -3.06641,2.94922 -1.83593,0.9375 -4.49218,0.9375 -3.35938,0 -5.35156,-1.875 -1.97266,-1.89454 -1.97266,-5.0586 0,-3.6914 2.46094,-5.5664 2.48046,-1.875 7.38281,-1.875 h 5.03906 v -0.35157 q 0,-2.48046 -1.64062,-3.82812 -1.6211,-1.36719 -4.57032,-1.36719 -1.875,0 -3.65234,0.44922 -1.77734,0.44922 -3.41797,1.34766 v -3.32032 q 1.97266,-0.76171 3.82813,-1.13281 1.85546,-0.39062 3.61328,-0.39062 4.74609,0 7.08984,2.46093 2.34375,2.46094 2.34375,7.46094 z" />
      <path
         inkscape:connector-curvature="0"
         id="path927"
         d="m 150.16016,-149.39062 h 3.59375 V -119 h -3.59375 z" />
      <path
         inkscape:connector-curvature="0"
         id="path929"
         d="m 161.25391,-149.39062 h 3.59375 V -119 h -3.59375 z" />
      <path
         inkscape:connector-curvature="0"
         id="path931"
         d="m 191.05859,-130.83594 v 1.75782 h -16.52343 q 0.23437,3.71093 2.22656,5.66406 2.01172,1.93359 5.58594,1.93359 2.07031,0 4.0039,-0.50781 1.95313,-0.50781 3.86719,-1.52344 v 3.39844 q -1.93359,0.82031 -3.96484,1.25 -2.03125,0.42969 -4.1211,0.42969 -5.23437,0 -8.30078,-3.04688 -3.04687,-3.04687 -3.04687,-8.24219 0,-5.37109 2.89062,-8.51562 2.91016,-3.16406 7.83203,-3.16406 4.41406,0 6.97266,2.85156 2.57812,2.83203 2.57812,7.71484 z m -3.59375,-1.05468 q -0.0391,-2.94922 -1.66015,-4.70704 -1.60157,-1.75781 -4.25782,-1.75781 -3.00781,0 -4.82421,1.69922 -1.79688,1.69922 -2.07032,4.78516 z" />
      <path
         inkscape:connector-curvature="0"
         id="path933"
         d="m 206.05859,-116.96875 q -1.52343,3.90625 -2.96875,5.09766 -1.44531,1.1914 -3.86718,1.1914 h -2.8711 v -3.00781 h 2.10938 q 1.48437,0 2.30468,-0.70313 0.82032,-0.70312 1.81641,-3.32031 l 0.64453,-1.64062 -8.84765,-21.52344 h 3.80859 l 6.83594,17.10937 6.83593,-17.10937 h 3.8086 z" />
      <path
         inkscape:connector-curvature="0"
         id="path935"
         d="m 255.35547,-145.91406 v 4.16015 q -1.99219,-1.85546 -4.25781,-2.77343 -2.2461,-0.91797 -4.78516,-0.91797 -5,0 -7.65625,3.0664 -2.65625,3.04688 -2.65625,8.82813 0,5.76172 2.65625,8.82812 2.65625,3.04688 7.65625,3.04688 2.53906,0 4.78516,-0.91797 2.26562,-0.91797 4.25781,-2.77344 v 4.1211 q -2.07031,1.40625 -4.39453,2.10937 -2.30469,0.70313 -4.88282,0.70313 -6.62109,0 -10.42968,-4.04297 -3.8086,-4.0625 -3.8086,-11.07422 0,-7.03125 3.8086,-11.07422 3.80859,-4.0625 10.42968,-4.0625 2.61719,0 4.92188,0.70313 2.32422,0.68359 4.35547,2.07031 z" />
      <path
         inkscape:connector-curvature="0"
         id="path937"
         d="m 269.80859,-138.35547 q -2.89062,0 -4.57031,2.26563 -1.67969,2.24609 -1.67969,6.17187 0,3.92578 1.66016,6.19141 1.67969,2.24609 4.58984,2.24609 2.8711,0 4.55078,-2.26562 1.67969,-2.26563 1.67969,-6.17188 0,-3.88672 -1.67969,-6.15234 -1.67968,-2.28516 -4.55078,-2.28516 z m 0,-3.04687 q 4.6875,0 7.36328,3.04687 2.67579,3.04688 2.67579,8.4375 0,5.37109 -2.67579,8.4375 -2.67578,3.04688 -7.36328,3.04688 -4.70703,0 -7.38281,-3.04688 -2.65625,-3.06641 -2.65625,-8.4375 0,-5.39062 2.65625,-8.4375 2.67578,-3.04687 7.38281,-3.04687 z" />
      <path
         inkscape:connector-curvature="0"
         id="path939"
         d="m 300.17969,-137.55469 v -11.83593 h 3.59375 V -119 h -3.59375 v -3.28125 q -1.13282,1.95312 -2.8711,2.91016 -1.71875,0.9375 -4.14062,0.9375 -3.96485,0 -6.46485,-3.16407 -2.48046,-3.16406 -2.48046,-8.32031 0,-5.15625 2.48046,-8.32031 2.5,-3.16406 6.46485,-3.16406 2.42187,0 4.14062,0.95703 1.73828,0.9375 2.8711,2.89062 z m -12.2461,7.63672 q 0,3.96484 1.6211,6.23047 1.64062,2.24609 4.49218,2.24609 2.85157,0 4.49219,-2.24609 1.64063,-2.26563 1.64063,-6.23047 0,-3.96484 -1.64063,-6.21094 -1.64062,-2.26562 -4.49219,-2.26562 -2.85156,0 -4.49218,2.26562 -1.6211,2.2461 -1.6211,6.21094 z" />
      <path
         inkscape:connector-curvature="0"
         id="path941"
         d="m 329.88672,-130.83594 v 1.75782 h -16.52344 q 0.23438,3.71093 2.22656,5.66406 2.01172,1.93359 5.58594,1.93359 2.07031,0 4.00391,-0.50781 1.95312,-0.50781 3.86718,-1.52344 v 3.39844 q -1.93359,0.82031 -3.96484,1.25 -2.03125,0.42969 -4.12109,0.42969 -5.23438,0 -8.30078,-3.04688 -3.04688,-3.04687 -3.04688,-8.24219 0,-5.37109 2.89063,-8.51562 2.91015,-3.16406 7.83203,-3.16406 4.41406,0 6.97265,2.85156 2.57813,2.83203 2.57813,7.71484 z m -3.59375,-1.05468 q -0.0391,-2.94922 -1.66016,-4.70704 -1.60156,-1.75781 -4.25781,-1.75781 -3.00781,0 -4.82422,1.69922 -1.79687,1.69922 -2.07031,4.78516 z" />
      <path
         inkscape:connector-curvature="0"
         id="path943"
         d="m 348.46094,-137.51562 q -0.60547,-0.35157 -1.32813,-0.50782 -0.70312,-0.17578 -1.5625,-0.17578 -3.04687,0 -4.6875,1.99219 -1.62109,1.97266 -1.62109,5.68359 V -119 h -3.61328 v -21.875 h 3.61328 v 3.39844 q 1.13281,-1.99219 2.94922,-2.94922 1.8164,-0.97656 4.41406,-0.97656 0.37109,0 0.82031,0.0586 0.44922,0.0391 0.9961,0.13672 z" />
      <path
         inkscape:connector-curvature="0"
         id="path945"
         d="m 366.21484,-140.23047 v 3.39844 q -1.52343,-0.78125 -3.16406,-1.17188 -1.64062,-0.39062 -3.39844,-0.39062 -2.67578,0 -4.02343,0.82031 -1.32813,0.82031 -1.32813,2.46094 0,1.25 0.95703,1.97266 0.95703,0.70312 3.84766,1.34765 l 1.23047,0.27344 q 3.82812,0.82031 5.42968,2.32422 1.6211,1.48437 1.6211,4.16015 0,3.04688 -2.42188,4.82422 -2.40234,1.77735 -6.62109,1.77735 -1.75781,0 -3.67188,-0.35157 -1.89453,-0.33203 -4.0039,-1.01562 v -3.71094 q 1.99219,1.03516 3.92578,1.5625 1.93359,0.50781 3.82812,0.50781 2.53907,0 3.90625,-0.85937 1.36719,-0.87891 1.36719,-2.46094 0,-1.46484 -0.99609,-2.24609 -0.97656,-0.78125 -4.31641,-1.50391 l -1.25,-0.29297 q -3.33984,-0.70312 -4.82422,-2.14843 -1.48437,-1.46485 -1.48437,-4.00391 0,-3.08594 2.1875,-4.76563 2.1875,-1.67968 6.21094,-1.67968 1.99218,0 3.75,0.29297 1.75781,0.29296 3.24218,0.8789 z" />
    </g>
  </g>
</svg>
