<?xml version="1.0" encoding="UTF-8" standalone="no"?>
<!-- Generator: Adobe Illustrator 16.0.0, SVG Export Plug-In . SVG Version: 6.00 Build 0)  -->

<svg
   xmlns:dc="http://purl.org/dc/elements/1.1/"
   xmlns:cc="http://creativecommons.org/ns#"
   xmlns:rdf="http://www.w3.org/1999/02/22-rdf-syntax-ns#"
   xmlns:svg="http://www.w3.org/2000/svg"
   xmlns="http://www.w3.org/2000/svg"
   xmlns:sodipodi="http://sodipodi.sourceforge.net/DTD/sodipodi-0.dtd"
   xmlns:inkscape="http://www.inkscape.org/namespaces/inkscape"
   version="1.1"
   id="Layer_1"
   x="0px"
   y="0px"
   width="900"
   height="177.82278"
   viewBox="0 0 900 177.82278"
   enable-background="new 0 0 525 500"
   xml:space="preserve"
   sodipodi:docname="meetup-button.svg"
   inkscape:version="0.92.4 (unknown)"
   inkscape:export-filename="/home/klequis/dev/tvc-sendgrid/meetup-button.png"
   inkscape:export-xdpi="90"
   inkscape:export-ydpi="90"><metadata
   id="metadata9"><rdf:RDF><cc:Work
       rdf:about=""><dc:format>image/svg+xml</dc:format><dc:type
         rdf:resource="http://purl.org/dc/dcmitype/StillImage" /><dc:title></dc:title></cc:Work></rdf:RDF></metadata><defs
   id="defs7" /><sodipodi:namedview
   pagecolor="#ffffff"
   bordercolor="#666666"
   borderopacity="1"
   objecttolerance="10"
   gridtolerance="10"
   guidetolerance="10"
   inkscape:pageopacity="0"
   inkscape:pageshadow="2"
   inkscape:window-width="1920"
   inkscape:window-height="1021"
   id="namedview5"
   showgrid="false"
   fit-margin-top="0"
   fit-margin-left="0"
   fit-margin-right="0"
   fit-margin-bottom="0"
   inkscape:zoom="1"
   inkscape:cx="337.16098"
   inkscape:cy="-75.072485"
   inkscape:window-x="0"
   inkscape:window-y="27"
   inkscape:window-maximized="1"
   inkscape:current-layer="Layer_1" />

<g
   transform="matrix(1.7110266,0,0,1.7110266,1009.5057,-682.69962)"
   id="use882"><path
     d="m -508.0876,461.53346 c 0.006,7.02717 -5.0542,13.08075 -11.9356,14.27099 -0.86643,0.1487 -1.74135,0.23672 -2.6206,0.22838 -0.29648,-0.003 -0.41291,0.11535 -0.50695,0.38697 -1.37384,3.94441 -4.1155,6.2957 -8.25709,6.88866 -2.73981,0.39191 -5.22607,-0.3428 -7.4055,-2.05574 -0.30358,-0.23873 -0.48919,-0.24274 -0.80574,-0.0165 -2.5491,1.82319 -5.40719,2.63063 -8.52825,2.44209 -6.09033,-0.36767 -11.21479,-5.02254 -12.17341,-11.02501 -0.0659,-0.41492 -0.13604,-0.83292 -0.14237,-1.25108 -0.006,-0.34775 -0.13835,-0.48193 -0.4705,-0.54694 -1.84389,-0.35948 -3.51714,-1.1189 -4.99336,-2.2744 -2.7168,-2.12708 -4.34682,-4.90441 -4.72622,-8.33986 -0.43267,-3.93206 0.78181,-7.33184 3.54771,-10.16491 0.22298,-0.22731 0.23688,-0.38558 0.0848,-0.65288 -1.06331,-1.85639 -1.56733,-3.86704 -1.48549,-5.99922 0.20414,-5.32134 3.90704,-9.71772 9.0576,-10.8062 0.59589,-0.12662 0.90827,-0.36026 1.17016,-0.92496 2.54046,-5.47328 6.80605,-8.80203 12.72529,-9.89993 4.15518,-0.77115 8.07504,0.0545 11.71247,2.19395 0.30574,0.18036 0.56176,0.19487 0.89268,0.0985 5.77717,-1.67619 10.89622,-0.45677 15.24211,3.67556 2.57011,2.44318 3.97823,5.53521 4.39515,9.06269 0.0913,0.77116 0.1328,1.54957 0.0741,2.32489 -0.0221,0.29324 0.0681,0.41585 0.34574,0.51853 2.60439,0.96402 4.40025,2.76174 5.18592,5.42078 0.97853,3.3076 0.15657,6.208 -2.31501,8.61967 -0.21418,0.20939 -0.16893,0.33756 -0.0476,0.54679 1.3062,2.25031 1.98286,4.67248 1.97992,7.27918 z m -25.77809,-1.12832 c 0.002,2.98996 1.92156,5.63264 4.64345,6.53057 1.36412,0.45043 2.77116,0.66415 4.19935,0.72699 1.01961,0.044 2.03752,-0.0272 2.97962,-0.49675 0.74073,-0.36983 1.08971,-0.9807 1.0562,-1.79463 -0.0335,-0.81933 -0.4004,-1.43206 -1.18406,-1.75818 -0.27239,-0.11319 -0.54895,-0.20538 -0.83817,-0.25556 -0.86442,-0.15426 -1.73301,-0.28413 -2.59311,-0.4546 -1.41955,-0.28274 -2.01482,-1.03413 -2.03366,-2.46958 -0.0165,-1.26977 0.32798,-2.46742 0.71865,-3.65225 0.71464,-2.16878 1.6782,-4.2358 2.6016,-6.3198 0.89145,-2.0125 1.82598,-4.00849 2.45569,-6.12816 0.34681,-1.16399 0.51235,-2.33107 0.19703,-3.53489 -0.47993,-1.82721 -1.57489,-3.05189 -3.46294,-3.40411 -1.72853,-0.32165 -3.44904,-0.35825 -5.01219,0.67264 -0.51977,0.34157 -1.01961,0.25988 -1.47082,-0.13836 -0.34466,-0.30281 -0.67264,-0.62338 -1.01003,-0.93453 -1.59451,-1.47205 -3.7026,-1.54431 -5.41445,-0.19997 -0.69071,0.54262 -1.27193,1.21541 -2.02224,1.68685 -0.67047,0.42109 -1.34651,0.54045 -2.08894,0.14453 -0.70723,-0.37724 -1.43947,-0.70923 -2.16986,-1.0403 -0.73981,-0.33416 -1.45645,-0.74691 -2.28922,-0.81717 -2.63403,-0.22421 -5.39051,1.3411 -6.5525,3.7205 -0.51559,1.05297 -0.93653,2.14685 -1.3357,3.24784 -1.84311,5.08987 -3.34434,10.2886 -4.89808,15.46942 -0.6958,2.31871 0.12539,4.60036 2.08879,5.85268 1.53181,0.97622 3.20908,1.21757 4.94549,0.6958 1.40673,-0.42341 2.17711,-1.55575 2.71556,-2.82783 1.78938,-4.22004 3.40086,-8.51173 5.10654,-12.76528 0.46943,-1.17047 0.92388,-2.34589 1.42187,-3.5037 0.50278,-1.16909 1.9475,-1.56732 2.80451,-0.792 0.52316,0.47329 0.66105,1.1033 0.60979,1.77687 -0.0564,0.71989 -0.33524,1.38387 -0.59713,2.04509 -1.10979,2.80574 -2.24012,5.6033 -3.35485,8.40688 -0.22529,0.56701 -0.46942,1.1294 -0.56902,1.73795 -0.17063,1.04494 0.24305,1.97112 1.09774,2.33972 0.87199,0.37631 1.77718,0.43916 2.68113,0.11102 1.05188,-0.38125 1.68051,-1.20475 2.16476,-2.15627 1.66384,-3.26744 3.31486,-6.54292 4.97761,-9.81052 0.76807,-1.50957 1.54957,-3.01204 2.33415,-4.51266 0.29154,-0.55621 0.63311,-1.08323 1.17774,-1.42897 0.49166,-0.31115 1.02146,-0.33431 1.52548,-0.0513 0.49181,0.27548 0.5247,0.77857 0.50401,1.27517 -0.0113,0.26699 -0.086,0.52795 -0.1887,0.77625 -0.21556,0.51637 -0.41692,1.04046 -0.65596,1.54664 -1.38295,2.90935 -2.7869,5.80744 -4.1575,8.72312 -0.57767,1.23055 -1.17897,2.46696 -1.10763,3.76081 z m 19.39839,21.44146 c 0.003,-1.92989 -1.61443,-3.54354 -3.56022,-3.54879 -1.99383,-0.007 -3.61134,1.58833 -3.61998,3.56763 -0.008,1.93484 1.63681,3.57659 3.5823,3.57906 1.97297,0.002 3.59481,-1.61967 3.5979,-3.5979 z m -60.1462,-29.57394 c 1.87646,0.004 3.45537,-1.56424 3.44796,-3.42387 -0.008,-1.86273 -1.55374,-3.4072 -3.41445,-3.41245 -1.90704,-0.005 -3.42109,1.50788 -3.42001,3.41785 0.002,1.8899 1.51111,3.4143 3.3865,3.41847 z m 42.01773,-38.25106 c -1.88588,-0.0105 -3.42294,1.49722 -3.4336,3.36627 -0.0114,1.86705 1.52023,3.40102 3.3967,3.40303 1.86905,10e-4 3.37029,-1.49614 3.37368,-3.36643 0.004,-1.8794 -1.48023,-3.39345 -3.33678,-3.40287 z m 27.76651,21.15872 c -0.008,-1.54972 -1.32953,-2.86766 -2.88542,-2.87816 -1.58833,-0.0114 -2.93376,1.33076 -2.9231,2.91584 0.0113,1.58107 1.29385,2.84867 2.88434,2.85083 1.63851,0.003 2.93344,-1.27702 2.92418,-2.88851 z m -59.48931,-8.27501 c 0,1.45538 1.13264,2.59728 2.57844,2.59945 1.46448,0.002 2.60052,-1.14608 2.59527,-2.62245 -0.005,-1.43206 -1.1399,-2.5522 -2.5806,-2.54787 -1.48162,0.003 -2.59234,1.10407 -2.59311,2.57087 z m 27.08553,60.02483 c 0.0125,-1.21217 -0.98487,-2.21047 -2.21078,-2.21479 -1.25834,-0.004 -2.2466,0.97128 -2.24336,2.21278 0.003,1.22468 0.98641,2.19487 2.22267,2.19487 1.23518,0.001 2.22081,-0.9671 2.23147,-2.19286 z m 34.58522,-34.44146 c -1.17774,-0.008 -2.19935,1.01313 -2.18993,2.18978 0.0102,1.16275 0.98085,2.11736 2.15626,2.11967 1.23225,0.002 2.15643,-0.90503 2.15936,-2.12276 0.003,-1.20506 -0.94287,-2.17835 -2.12569,-2.18669 z m -51.72697,-40.61177 c -1.03829,-0.004 -1.83971,0.78891 -1.83971,1.82211 0,1.02672 0.80976,1.82505 1.84713,1.8198 1.00679,-0.005 1.7957,-0.80791 1.7957,-1.82736 1.6e-4,-1.02888 -0.7764,-1.8093 -1.80312,-1.81455 z m 55.83598,30.82596 c -0.84635,-0.01 -1.61334,0.74799 -1.62399,1.60608 -0.0114,0.88743 0.72714,1.626 1.62816,1.62816 0.89484,0.003 1.59666,-0.69255 1.603,-1.59141 0.008,-0.90411 -0.70414,-1.63141 -1.60717,-1.64283 z m -64.09091,31.96384 c 0.004,-0.85917 -0.73672,-1.59882 -1.60933,-1.60701 -0.88449,-0.008 -1.61164,0.73657 -1.60531,1.64176 0.007,0.88434 0.72499,1.58292 1.6189,1.57674 0.87709,-0.005 1.5928,-0.7273 1.59574,-1.61149 z"
     id="path884"
     inkscape:connector-curvature="0"
     style="fill:#f64060;stroke-width:0.15441622" /><rect
     style="opacity:1;fill:none;fill-opacity:1;stroke:#f64060;stroke-width:3.84423018;stroke-linejoin:bevel;stroke-miterlimit:4;stroke-dasharray:none;stroke-opacity:1"
     id="rect886"
     width="522.15576"
     height="100.08331"
     x="-588.07788"
     y="400.92212"
     ry="15.95531" /><g
     aria-label="Register via Meetup"
     style="font-style:normal;font-weight:normal;font-size:40px;line-height:1.25;font-family:sans-serif;letter-spacing:0px;word-spacing:0px;fill:#f64060;fill-opacity:1;stroke:none"
     id="g922"><path
       inkscape:connector-curvature="0"
       d="m -465.24609,447.86322 q 1.26953,0.42969 2.46093,1.83594 1.21094,1.40625 2.42188,3.86719 l 4.00391,7.96875 h -4.23829 l -3.73046,-7.48047 q -1.44532,-2.92969 -2.8125,-3.88672 -1.34766,-0.95703 -3.69141,-0.95703 h -4.29688 v 12.32422 h -3.94531 v -29.16016 h 8.90625 q 5,0 7.46094,2.08984 2.46094,2.08985 2.46094,6.3086 0,2.7539 -1.28907,4.57031 -1.26953,1.81641 -3.71093,2.51953 z m -9.88282,-12.24609 v 10.35156 h 4.96094 q 2.85156,0 4.29688,-1.30859 1.46484,-1.32813 1.46484,-3.88672 0,-2.5586 -1.46484,-3.84766 -1.44532,-1.30859 -4.29688,-1.30859 z"
       id="path888" /><path
       inkscape:connector-curvature="0"
       d="m -434.50391,449.69916 v 1.75781 h -16.52343 q 0.23437,3.71094 2.22656,5.66406 2.01172,1.9336 5.58594,1.9336 2.07031,0 4.0039,-0.50782 1.95313,-0.50781 3.86719,-1.52343 v 3.39843 q -1.93359,0.82032 -3.96484,1.25 -2.03125,0.42969 -4.1211,0.42969 -5.23437,0 -8.30078,-3.04687 -3.04687,-3.04688 -3.04687,-8.24219 0,-5.37109 2.89062,-8.51563 2.91016,-3.16406 7.83203,-3.16406 4.41407,0 6.97266,2.85156 2.57812,2.83204 2.57812,7.71485 z m -3.59375,-1.05469 q -0.0391,-2.94922 -1.66015,-4.70703 -1.60156,-1.75781 -4.25781,-1.75781 -3.00782,0 -4.82422,1.69922 -1.79688,1.69921 -2.07032,4.78515 z"
       id="path890" /><path
       inkscape:connector-curvature="0"
       d="m -414.21094,450.34369 q 0,-3.90625 -1.62109,-6.05469 -1.60156,-2.14844 -4.51172,-2.14844 -2.89062,0 -4.51172,2.14844 -1.60156,2.14844 -1.60156,6.05469 0,3.88672 1.60156,6.03516 1.6211,2.14843 4.51172,2.14843 2.91016,0 4.51172,-2.14843 1.62109,-2.14844 1.62109,-6.03516 z m 3.59375,8.47656 q 0,5.58594 -2.48047,8.30078 -2.48046,2.73438 -7.59765,2.73438 -1.89453,0 -3.57422,-0.29297 -1.67969,-0.27344 -3.26172,-0.85938 v -3.49609 q 1.58203,0.85938 3.125,1.26953 1.54297,0.41016 3.14453,0.41016 3.53516,0 5.29297,-1.85547 1.75781,-1.83594 1.75781,-5.56641 v -1.77734 q -1.11328,1.93359 -2.85156,2.89062 -1.73828,0.95704 -4.16016,0.95704 -4.02343,0 -6.48437,-3.06641 -2.46094,-3.06641 -2.46094,-8.125 0,-5.07813 2.46094,-8.14453 2.46094,-3.06641 6.48437,-3.06641 2.42188,0 4.16016,0.95703 1.73828,0.95703 2.85156,2.89063 v -3.32031 h 3.59375 z"
       id="path892" /><path
       inkscape:connector-curvature="0"
       d="m -403.21484,439.6601 h 3.59375 v 21.875 h -3.59375 z m 0,-8.51563 h 3.59375 v 4.55078 h -3.59375 z"
       id="path894" /><path
       inkscape:connector-curvature="0"
       d="m -378.17578,440.30463 v 3.39843 q -1.52344,-0.78125 -3.16406,-1.17187 -1.64063,-0.39063 -3.39844,-0.39063 -2.67578,0 -4.02344,0.82032 -1.32812,0.82031 -1.32812,2.46093 0,1.25 0.95703,1.97266 0.95703,0.70313 3.84765,1.34766 l 1.23047,0.27343 q 3.82813,0.82032 5.42969,2.32422 1.62109,1.48438 1.62109,4.16016 0,3.04687 -2.42187,4.82422 -2.40234,1.77734 -6.62109,1.77734 -1.75782,0 -3.67188,-0.35156 -1.89453,-0.33203 -4.00391,-1.01563 v -3.71093 q 1.99219,1.03515 3.92579,1.5625 1.93359,0.50781 3.82812,0.50781 2.53906,0 3.90625,-0.85938 1.36719,-0.8789 1.36719,-2.46093 0,-1.46485 -0.9961,-2.2461 -0.97656,-0.78125 -4.3164,-1.5039 l -1.25,-0.29297 q -3.33985,-0.70313 -4.82422,-2.14844 -1.48438,-1.46484 -1.48438,-4.00391 0,-3.08593 2.1875,-4.76562 2.1875,-1.67969 6.21094,-1.67969 1.99219,0 3.75,0.29297 1.75781,0.29297 3.24219,0.87891 z"
       id="path896" /><path
       inkscape:connector-curvature="0"
       d="m -367.70703,433.44916 v 6.21094 h 7.40234 v 2.79296 h -7.40234 v 11.875 q 0,2.67579 0.72266,3.4375 0.74218,0.76172 2.98828,0.76172 h 3.6914 v 3.00782 h -3.6914 q -4.16016,0 -5.74219,-1.54297 -1.58203,-1.5625 -1.58203,-5.66407 v -11.875 h -2.63672 v -2.79296 h 2.63672 v -6.21094 z"
       id="path898" /><path
       inkscape:connector-curvature="0"
       d="m -336.84766,449.69916 v 1.75781 h -16.52343 q 0.23437,3.71094 2.22656,5.66406 2.01172,1.9336 5.58594,1.9336 2.07031,0 4.0039,-0.50782 1.95313,-0.50781 3.86719,-1.52343 v 3.39843 q -1.93359,0.82032 -3.96484,1.25 -2.03125,0.42969 -4.1211,0.42969 -5.23437,0 -8.30078,-3.04687 -3.04687,-3.04688 -3.04687,-8.24219 0,-5.37109 2.89062,-8.51563 2.91016,-3.16406 7.83203,-3.16406 4.41407,0 6.97266,2.85156 2.57812,2.83204 2.57812,7.71485 z m -3.59375,-1.05469 q -0.0391,-2.94922 -1.66015,-4.70703 -1.60156,-1.75781 -4.25781,-1.75781 -3.00782,0 -4.82422,1.69922 -1.79688,1.69921 -2.07032,4.78515 z"
       id="path900" /><path
       inkscape:connector-curvature="0"
       d="m -318.27344,443.01947 q -0.60547,-0.35156 -1.32812,-0.50781 -0.70313,-0.17578 -1.5625,-0.17578 -3.04688,0 -4.6875,1.99218 -1.6211,1.97266 -1.6211,5.6836 v 11.52344 h -3.61328 v -21.875 h 3.61328 v 3.39843 q 1.13282,-1.99218 2.94922,-2.94922 1.81641,-0.97656 4.41407,-0.97656 0.37109,0 0.82031,0.0586 0.44922,0.0391 0.99609,0.13671 z"
       id="path902" /><path
       inkscape:connector-curvature="0"
       d="M -304.30859,439.6601 H -300.5 l 6.83594,18.35937 6.83594,-18.35937 h 3.80859 l -8.20313,21.875 h -4.88281 z"
       id="path904" /><path
       inkscape:connector-curvature="0"
       d="m -278.05859,439.6601 h 3.59375 v 21.875 h -3.59375 z m 0,-8.51563 h 3.59375 v 4.55078 h -3.59375 z"
       id="path906" /><path
       inkscape:connector-curvature="0"
       d="m -257.02344,450.539 q -4.35547,0 -6.03515,0.9961 -1.67969,0.99609 -1.67969,3.39843 0,1.91407 1.25,3.04688 1.26953,1.11328 3.4375,1.11328 2.98828,0 4.78516,-2.10938 1.8164,-2.1289 1.8164,-5.64453 V 450.539 Z m 7.16797,-1.48437 v 12.48047 h -3.59375 v -3.32032 q -1.23047,1.99219 -3.0664,2.94922 -1.83594,0.9375 -4.49219,0.9375 -3.35938,0 -5.35156,-1.875 -1.97266,-1.89453 -1.97266,-5.05859 0,-3.69141 2.46094,-5.56641 2.48047,-1.875 7.38281,-1.875 h 5.03906 v -0.35156 q 0,-2.48047 -1.64062,-3.82813 -1.6211,-1.36718 -4.57032,-1.36718 -1.875,0 -3.65234,0.44922 -1.77734,0.44921 -3.41797,1.34765 v -3.32031 q 1.97266,-0.76172 3.82813,-1.13281 1.85547,-0.39063 3.61328,-0.39063 4.74609,0 7.08984,2.46094 2.34375,2.46094 2.34375,7.46094 z"
       id="path908" /><path
       inkscape:connector-curvature="0"
       d="m -229.54297,432.37494 h 5.87891 l 7.4414,19.84375 7.48047,-19.84375 h 5.87891 v 29.16016 h -3.84766 v -25.60547 l -7.51953,20 h -3.96484 l -7.51953,-20 v 25.60547 h -3.82813 z"
       id="path910" /><path
       inkscape:connector-curvature="0"
       d="m -176.45703,449.69916 v 1.75781 h -16.52344 q 0.23438,3.71094 2.22656,5.66406 2.01172,1.9336 5.58594,1.9336 2.07031,0 4.00391,-0.50782 1.95312,-0.50781 3.86719,-1.52343 v 3.39843 q -1.9336,0.82032 -3.96485,1.25 -2.03125,0.42969 -4.12109,0.42969 -5.23438,0 -8.30078,-3.04687 -3.04688,-3.04688 -3.04688,-8.24219 0,-5.37109 2.89063,-8.51563 2.91015,-3.16406 7.83203,-3.16406 4.41406,0 6.97265,2.85156 2.57813,2.83204 2.57813,7.71485 z m -3.59375,-1.05469 q -0.0391,-2.94922 -1.66016,-4.70703 -1.60156,-1.75781 -4.25781,-1.75781 -3.00781,0 -4.82422,1.69922 -1.79687,1.69921 -2.07031,4.78515 z"
       id="path912" /><path
       inkscape:connector-curvature="0"
       d="m -151.84766,449.69916 v 1.75781 h -16.52343 q 0.23437,3.71094 2.22656,5.66406 2.01172,1.9336 5.58594,1.9336 2.07031,0 4.0039,-0.50782 1.95313,-0.50781 3.86719,-1.52343 v 3.39843 q -1.93359,0.82032 -3.96484,1.25 -2.03125,0.42969 -4.1211,0.42969 -5.23437,0 -8.30078,-3.04687 -3.04687,-3.04688 -3.04687,-8.24219 0,-5.37109 2.89062,-8.51563 2.91016,-3.16406 7.83203,-3.16406 4.41407,0 6.97266,2.85156 2.57812,2.83204 2.57812,7.71485 z m -3.59375,-1.05469 q -0.0391,-2.94922 -1.66015,-4.70703 -1.60156,-1.75781 -4.25781,-1.75781 -3.00782,0 -4.82422,1.69922 -1.79688,1.69921 -2.07032,4.78515 z"
       id="path914" /><path
       inkscape:connector-curvature="0"
       d="m -142.39453,433.44916 v 6.21094 h 7.40234 v 2.79296 h -7.40234 v 11.875 q 0,2.67579 0.72266,3.4375 0.74218,0.76172 2.98828,0.76172 h 3.6914 v 3.00782 h -3.6914 q -4.16016,0 -5.74219,-1.54297 -1.58203,-1.5625 -1.58203,-5.66407 v -11.875 h -2.63672 v -2.79296 h 2.63672 v -6.21094 z"
       id="path916" /><path
       inkscape:connector-curvature="0"
       d="M -130.61719,452.90228 V 439.6601 h 3.59375 v 13.10546 q 0,3.10547 1.21094,4.66797 1.21094,1.54297 3.63281,1.54297 2.91016,0 4.58985,-1.85547 1.69921,-1.85547 1.69921,-5.05859 V 439.6601 h 3.59375 v 21.875 h -3.59375 v -3.35938 q -1.30859,1.99219 -3.04687,2.96875 -1.71875,0.95703 -4.00391,0.95703 -3.76953,0 -5.72265,-2.34375 -1.95313,-2.34375 -1.95313,-6.85547 z m 9.04297,-13.76953 z"
       id="path918" /><path
       inkscape:connector-curvature="0"
       d="m -101.37891,458.25385 v 11.60156 h -3.61328 V 439.6601 h 3.61328 v 3.32031 q 1.13282,-1.95313 2.851566,-2.89063 1.738282,-0.95703 4.140625,-0.95703 3.984375,0 6.464844,3.16406 2.5,3.16407 2.5,8.32032 0,5.15625 -2.5,8.32031 -2.480469,3.16406 -6.464844,3.16406 -2.402343,0 -4.140625,-0.9375 -1.718746,-0.95703 -2.851566,-2.91015 z m 12.226566,-7.63672 q 0,-3.96485 -1.640625,-6.21094 -1.621093,-2.26563 -4.472656,-2.26563 -2.851562,0 -4.492187,2.26563 -1.621098,2.24609 -1.621098,6.21094 0,3.96484 1.621098,6.23047 1.640625,2.24609 4.492187,2.24609 2.851563,0 4.472656,-2.24609 1.640625,-2.26563 1.640625,-6.23047 z"
       id="path920" /></g></g></svg>